<?xml version="1.0" encoding="utf-8"?>
<!-- Generator: Adobe Illustrator 21.0.0, SVG Export Plug-In . SVG Version: 6.00 Build 0)  -->
<svg version="1.1" id="图层_1" xmlns="http://www.w3.org/2000/svg" xmlns:xlink="http://www.w3.org/1999/xlink" x="0px" y="0px"
	 viewBox="0 0 200 200" style="enable-background:new 0 0 200 200;" xml:space="preserve">
<style type="text/css">
	.st0{fill:#D84135;}
</style>
<path class="st0" d="M191.2,42c-4.9-8.7-20.9-12.7-32.9-13.4c-12-0.7-41.4-0.9-70.3,9.9C59,49.3,48.6,57.8,43,65.9l-12.4-7
	c0,0-1.7-0.7-4.2-0.7s-3.9,1.3-4.8,3.3s-3.2,11.9-4.5,15.4c-1.2,3.6-3.4,8.2-4.9,10.7c-1.5,2.4-3.8,7.6-4.8,9.4
	c-0.9,1.8-3.9,9.6,1.1,13s10.5,0.7,10.5,0.7s17.5-5.6,19-15.7S38.1,78,38.1,78l-0.4-2.7l3.1,1.8c0,0-0.1,4.4,4.4,10.7
	s17.1,19.5,41.5,29.1c0,0,10.7,5.1,25,7.1l-0.5,3.6l-12.2,20.8c0,0-3.4,0.8-5.4,0.6c-2-0.2-5.3-2.2-6-7.7c0,0-4,9.9,7.6,12.7
	l-10.8,18.8h3.9c0,0,13.9-16.7,18.3-16.7l-0.6,16.7h4.7c0,0,3.9-18.3,9.8-18.3c0,0,4.2-3.1,7.6,18.3h4.9V123c0,0,30.6-4.2,48.9-35.9
	c-9.7,3.6-19.2,5.4-28.3,5.4c-1.1,0-2.1,0-3.2-0.1c-8.7-0.4-17.1-2.5-24.8-6.2c-13.2-6.4-20-15.2-20.2-15.5c-0.7-0.9-0.5-2.3,0.4-3
	c0.9-0.7,2.3-0.5,3,0.4c0.1,0.1,6.5,8.5,18.9,14.4c7.2,3.4,15,5.4,23.1,5.7c10.2,0.5,21.1-1.5,32.2-6c0.5-0.2,1.1-0.2,1.6,0
	c2.7-5.6,5.1-11.8,6.9-19C191.6,63.2,196.1,50.7,191.2,42z M109.3,56.6c-3,0-5.4-2.3-5.4-5.2c0-2.9,2.4-5.2,5.4-5.2
	c3,0,5.4,2.3,5.4,5.2C114.7,54.3,112.3,56.6,109.3,56.6z M169.4,45.1c-8.6,0.6-15.7-1.7-15.9-5c-0.2-3.4,6.5-6.6,15.1-7.2
	c8.6-0.6,16.1,2.7,16.3,6.1C185.1,42.4,177.9,44.5,169.4,45.1z"/>
</svg>
