<?xml version="1.0" encoding="utf-8"?>
<!-- Generator: Adobe Illustrator 21.0.0, SVG Export Plug-In . SVG Version: 6.00 Build 0)  -->
<svg version="1.1" id="图层_1" xmlns="http://www.w3.org/2000/svg" xmlns:xlink="http://www.w3.org/1999/xlink" x="0px" y="0px"
	 viewBox="0 0 200 200" style="enable-background:new 0 0 200 200;" xml:space="preserve">
<style type="text/css">
	.st0{fill:#D84135;}
</style>
<path class="st0" d="M159.2,59.5v25.8c0,32.6-26.7,59.8-59.2,59.8c-32.7,0-59.3-26.6-59.3-59.3v-20c0-3.5,2.8-6.3,6.3-6.3h112V26.4
	H15.8c-6.3,0-11.5,5.1-11.5,11.5v21.7h0.1l0,25.7c0,25.5,9.9,50.1,27.9,68.1c18.1,18.1,42.1,28,67.6,28c25.5,0,49.5-9.9,67.5-28
	c18-18,28-42,28-67.5V59.5H159.2z"/>
</svg>
