<?xml version="1.0" encoding="UTF-8" standalone="no"?>
<!-- Created with Sodipodi ("http://www.sodipodi.com/") -->

<svg
   xmlns:dc="http://purl.org/dc/elements/1.1/"
   xmlns:cc="http://creativecommons.org/ns#"
   xmlns:rdf="http://www.w3.org/1999/02/22-rdf-syntax-ns#"
   xmlns:svg="http://www.w3.org/2000/svg"
   xmlns="http://www.w3.org/2000/svg"
   xmlns:xlink="http://www.w3.org/1999/xlink"
   xmlns:sodipodi="http://sodipodi.sourceforge.net/DTD/sodipodi-0.dtd"
   xmlns:inkscape="http://www.inkscape.org/namespaces/inkscape"
   id="svg604"
   sodipodi:version="0.32"
   width="72pt"
   height="72pt"
   sodipodi:docname="python.svg"
   inkscape:version="0.48.4 r9939"
   inkscape:output_extension="org.inkscape.output.svg.inkscape"
   version="1.1"
   inkscape:export-filename="/home/jiba/src/ontopy/icons/python.png"
   inkscape:export-xdpi="90"
   inkscape:export-ydpi="90">
  <metadata
     id="metadata94">
    <rdf:RDF>
      <cc:Work
         rdf:about="">
        <dc:format>image/svg+xml</dc:format>
        <dc:type
           rdf:resource="http://purl.org/dc/dcmitype/StillImage" />
        <dc:title />
      </cc:Work>
    </rdf:RDF>
  </metadata>
  <defs
     id="defs606">
    <inkscape:perspective
       sodipodi:type="inkscape:persp3d"
       inkscape:vp_x="0 : 45 : 1"
       inkscape:vp_y="0 : 1000 : 0"
       inkscape:vp_z="90 : 45 : 1"
       inkscape:persp3d-origin="45 : 30 : 1"
       id="perspective58" />
    <linearGradient
       inkscape:collect="always"
       id="linearGradient2884">
      <stop
         style="stop-color:#ed0000;stop-opacity:1;"
         offset="0"
         id="stop2886" />
      <stop
         style="stop-color:#ff4545;stop-opacity:1"
         offset="1"
         id="stop2888" />
    </linearGradient>
    <linearGradient
       id="linearGradient9056">
      <stop
         style="stop-color:#2aaf18;stop-opacity:1;"
         offset="0"
         id="stop9058" />
      <stop
         style="stop-color:#cbff87;stop-opacity:1;"
         offset="1"
         id="stop9060" />
    </linearGradient>
    <linearGradient
       id="linearGradient10062">
      <stop
         style="stop-color:#ffffff;stop-opacity:1;"
         offset="0"
         id="stop10064" />
      <stop
         style="stop-color:#ffffff;stop-opacity:0;"
         offset="1"
         id="stop10066" />
    </linearGradient>
    <defs
       id="defs550">
      <linearGradient
         id="linearGradient1828">
        <stop
           style="stop-color:#ffc93f;stop-opacity:1.0000000;"
           offset="0.0000000"
           id="stop1829" />
        <stop
           style="stop-color:#f1e36c;stop-opacity:1.0000000;"
           offset="1.0000000"
           id="stop1830" />
      </linearGradient>
      <linearGradient
         id="linearGradient1825">
        <stop
           offset="0.0000000"
           style="stop-color:#ffd800;stop-opacity:1.0000000;"
           id="stop1827" />
        <stop
           offset="1.0000000"
           style="stop-color:#ffd58f;stop-opacity:0.0000000;"
           id="stop1826" />
      </linearGradient>
      <linearGradient
         x1="0.0000000"
         y1="0.0000000"
         x2="1.0000000"
         y2="0.0000000"
         id="linearGradient632"
         gradientUnits="objectBoundingBox"
         spreadMethod="pad">
        <stop
           style="stop-color:#ffb700;stop-opacity:1;"
           offset="0.00000000"
           id="stop633" />
        <stop
           style="stop-color:#ffd58f;stop-opacity:0;"
           offset="1.00000000"
           id="stop634" />
      </linearGradient>
      <linearGradient
         x1="0.0000000"
         y1="0.0000000"
         x2="1.0000000"
         y2="0.0000000"
         id="linearGradient556"
         gradientUnits="objectBoundingBox"
         spreadMethod="pad">
        <stop
           style="stop-color:#000000;stop-opacity:1;"
           offset="0.00000000"
           id="stop557" />
        <stop
           style="stop-color:#bdf2ff;stop-opacity:0.384314;"
           offset="1.00000000"
           id="stop558" />
      </linearGradient>
      <linearGradient
         x1="60.644615"
         y1="19.295689"
         x2="35.370575"
         y2="69.142799"
         id="linearGradient559"
         xlink:href="#linearGradient632"
         gradientUnits="userSpaceOnUse"
         spreadMethod="pad"
         gradientTransform="matrix(1.418885,-0.200635,0.127692,1.110535,-136.7997,-1.332303)" />
      <linearGradient
         x1="85.637657"
         y1="17.443844"
         x2="73.916298"
         y2="54.628181"
         id="linearGradient631"
         xlink:href="#linearGradient632"
         gradientUnits="userSpaceOnUse"
         gradientTransform="matrix(1.050920,-0.148604,0.172402,1.499373,-123.6994,-3.008376)"
         spreadMethod="pad" />
      <defs
         id="defs3">
        <sodipodi:namedview
           id="namedview909" />
        <defs
           id="defs1721">
          <linearGradient
             x1="0.0000000"
             y1="0.0000000"
             x2="1.0000000"
             y2="0.0000000"
             id="linearGradient1722"
             gradientUnits="objectBoundingBox"
             spreadMethod="pad"
             xlink:href="#linearGradient1825" />
          <linearGradient
             x1="0.0000000"
             y1="0.0000000"
             x2="1.0000000"
             y2="0.0000000"
             id="linearGradient1725"
             gradientUnits="objectBoundingBox"
             spreadMethod="pad">
            <stop
               style="stop-color:#000000;stop-opacity:1;"
               offset="0.000000"
               id="stop1726" />
            <stop
               style="stop-color:#bdf2ff;stop-opacity:0.384314;"
               offset="1.000000"
               id="stop1727" />
          </linearGradient>
          <linearGradient
             id="linearGradient1728"
             xlink:href="#linearGradient632"
             x1="60.644615"
             y1="19.295689"
             x2="35.370575"
             y2="69.142799"
             gradientUnits="userSpaceOnUse"
             spreadMethod="pad" />
          <linearGradient
             xlink:href="#linearGradient632"
             id="linearGradient1729"
             x1="85.637657"
             y1="17.443844"
             x2="73.916298"
             y2="54.628181"
             gradientUnits="userSpaceOnUse"
             spreadMethod="pad"
             gradientTransform="scale(0.740666,1.350136)" />
        </defs>
      </defs>
      <sodipodi:namedview
         id="namedview1730"
         pagecolor="#ffffff"
         bordercolor="#666666"
         borderopacity="1.0"
         inkscape:pageopacity="0.0"
         inkscape:pageshadow="2"
         inkscape:zoom="2.4559706"
         inkscape:cx="113.94414"
         inkscape:cy="73.007956"
         inkscape:window-width="812"
         inkscape:window-height="560"
         inkscape:window-x="103"
         inkscape:window-y="56" />
      <metadata
         id="metadata4">
        <rdf:RDF>
          <cc:Work
             rdf:about="">
            <dc:format>image/svg+xml</dc:format>
            <dc:type
               rdf:resource="http://purl.org/dc/dcmitype/StillImage" />
          </cc:Work>
        </rdf:RDF>
      </metadata>
      <linearGradient
         inkscape:collect="always"
         xlink:href="#linearGradient1828"
         id="linearGradient1831"
         gradientTransform="matrix(0.563776,0.000000,0.000000,0.563788,50.39821,45.07308)"
         x1="32.051327"
         y1="14.657825"
         x2="32.051327"
         y2="75.934349"
         gradientUnits="userSpaceOnUse" />
    </defs>
    <radialGradient
       inkscape:collect="always"
       xlink:href="#linearGradient10062"
       id="radialGradient10072"
       cx="37.813927"
       cy="137.79784"
       fx="37.813927"
       fy="137.79784"
       r="4.505033"
       gradientTransform="matrix(0.1530775,0.4091218,-1.5037607,0.5626493,267.22081,18.17175)"
       gradientUnits="userSpaceOnUse" />
    <linearGradient
       inkscape:collect="always"
       xlink:href="#linearGradient9056"
       id="linearGradient2241"
       gradientUnits="userSpaceOnUse"
       gradientTransform="matrix(1.8890797,0.02280505,-0.02280777,1.8888538,-30.11387,-28.320405)"
       x1="29.268946"
       y1="39.429962"
       x2="19.734739"
       y2="28.532309" />
    <linearGradient
       inkscape:collect="always"
       xlink:href="#linearGradient9056"
       id="linearGradient2243"
       gradientUnits="userSpaceOnUse"
       gradientTransform="matrix(1.8890797,0.02280505,-0.02280777,1.8888538,-30.11387,-28.320405)"
       x1="42.087753"
       y1="36.913723"
       x2="52.79108"
       y2="16.673117" />
    <linearGradient
       inkscape:collect="always"
       xlink:href="#linearGradient2884"
       id="linearGradient2890"
       x1="69.480644"
       y1="79.143646"
       x2="45.796692"
       y2="65.326477"
       gradientUnits="userSpaceOnUse"
       gradientTransform="matrix(1.0510847,0,0,1.0510847,-1.681992,-2.0832954)" />
  </defs>
  <sodipodi:namedview
     id="base"
     inkscape:zoom="9.6794476"
     inkscape:cx="44.127307"
     inkscape:cy="38.23241"
     inkscape:window-width="1856"
     inkscape:window-height="1051"
     inkscape:window-x="64"
     inkscape:window-y="0"
     inkscape:current-layer="svg604"
     showgrid="false"
     inkscape:window-maximized="1" />
  <path
     style="fill:#000000;fill-opacity:0.30275227;fill-rule:evenodd;stroke:none"
     d="M 51.555135,4.4933952 C 42.562669,4.5813704 31.891331,10.554542 32.236963,29.043233 -6.8678618,9.3416011 -6.1880553,71.625669 35.851331,68.04881 c 3.587367,2.337544 7.998453,4.035406 12.671059,4.984739 -2.028717,16.973129 15.150587,18.04566 22.10165,16.540233 9.732011,-2.107717 13.351064,-3.953069 17.947205,-17.163326 -3.05127,3.879001 -5.418943,6.816934 -9.762947,9.180226 2.445201,-4.6968 1.147636,-9.107989 0.623167,-12.087991 -0.953742,5.957274 -5.521823,11.411925 -9.098236,13.0434 C 62.808326,85.978774 54.127605,81.557453 53.424637,73.73972 59.839754,74.34134 66.416717,73.602098 71.82883,71.455047 88.41543,64.874944 91.015858,41.70212 88.945145,27.880125 86.898144,14.216445 81.357104,5.40271 61.567349,7.4011592 59.374463,5.6267557 55.642621,4.4534052 51.555135,4.4933952 z"
     id="path2616"
     inkscape:connector-curvature="0"
     sodipodi:nodetypes="scccscccscsscs" />
  <path
     style="fill:#29503b;fill-opacity:1;fill-rule:evenodd;stroke:none"
     d="M 32.543923,63.96389 C -9.4954635,67.540747 -10.192144,5.2512365 28.912681,24.952867 28.409942,-1.9397717 51.245863,-2.3715173 58.263094,3.3065712 78.052851,1.3081233 83.566251,10.109217 85.613252,23.772897 87.68397,37.594894 85.077619,60.800878 68.49102,67.380982 57.643526,71.684311 42.164573,70.23275 32.543923,63.96389 z"
     id="path2223"
     sodipodi:nodetypes="cccssc"
     inkscape:connector-curvature="0" />
  <path
     id="path2234"
     d="M 55.143768,56.458141 C 52.22746,51.98066 48.870957,45.578718 46.552871,42.310659 43.74472,39.012617 41.94394,35.212442 38.250553,32.949024 34.706977,29.944213 28.400317,27.763537 26.755759,27.113781 -4.7691514,14.658423 -0.602973,64.981181 34.981562,58.60071 c 2.165239,-0.388237 13.122695,0.358795 15.537625,-0.249237 1.048818,-0.264068 3.074987,-1.230784 4.624581,-1.893332 z"
     style="fill:url(#linearGradient2241);fill-opacity:1;fill-rule:evenodd;stroke:none"
     sodipodi:nodetypes="cccsssc"
     inkscape:connector-curvature="0" />
  <path
     style="fill:url(#linearGradient2243);fill-opacity:1;fill-rule:evenodd;stroke:none"
     d="m 47.901887,4.0593638 c -7.86473,-0.038035 -16.061093,6.9363432 -15.828438,23.2205732 1.255515,1.127843 2.718951,2.35945 4.029813,3.904712 0.818332,0.761334 1.602338,1.229028 2.451122,2.160054 2.186941,2.398838 4.515373,5.388967 7.145647,9.097146 2.318086,3.268059 6.265017,9.604407 9.181324,14.081887 4.026844,-1.721724 8.444766,-4.122898 8.807425,-6.854015 -1.304667,12.470674 -19.85472,12.984757 -27.668608,11.631056 8.642639,6.366256 19.485621,4.524764 29.247297,2.160054 C 79.338062,59.64669 83.325478,37.034921 81.552895,25.202963 79.800614,13.506526 76.596845,5.6212548 57.041667,7.6732994 54.90125,5.6996603 52.246705,4.4856673 49.480576,4.1424431 48.961927,4.0780878 48.426201,4.0619001 47.901887,4.0593638 z"
     id="path2232"
     sodipodi:nodetypes="cccssccccscsc"
     inkscape:connector-curvature="0" />
  <path
     style="fill:#6c0f0a;fill-opacity:1;fill-rule:evenodd;stroke:none"
     d="m 52.599814,60.517174 c -7.946779,12.956409 4.277223,22.567534 14.402964,17.94841 3.576411,-1.631477 8.139951,-7.102412 9.093693,-13.059685 0.524466,2.980002 1.833952,7.39507 -0.611248,12.09187 4.344007,-2.363291 6.732143,-5.298518 9.783413,-9.17752 -3.046463,14.553311 -8.246653,16.512345 -17.978664,18.620062 -7.848551,1.699807 -28.751605,-1.730087 -20.302591,-25.305727 1.091699,-0.02866 4.642593,-0.738507 5.612433,-1.11741 z"
     id="path4187"
     sodipodi:nodetypes="cscccscc"
     inkscape:connector-curvature="0" />
  <path
     style="fill:#29503b;fill-opacity:1;fill-rule:evenodd;stroke:none"
     d="m 29.372168,38.981758 c 4.815921,-5.386257 13.03646,0.01978 12.308949,5.393445 -2.469492,-2.421579 -5.492879,-3.451908 -8.518646,-2.293229 -3.673164,1.406594 -5.238067,-1.480999 -3.790303,-3.100216 z"
     id="path4189"
     sodipodi:nodetypes="ccss"
     inkscape:connector-curvature="0" />
  <path
     sodipodi:nodetypes="cscccscc"
     id="path5162"
     d="m 50.691845,60.994998 c -7.556006,12.383363 4.960478,23.642796 14.788978,19.686198 3.353032,-1.349812 8.162703,-3.628366 9.956941,-9.267325 -0.274822,2.260904 0.490761,3.993184 -1.217108,7.469242 2.922757,-0.584552 4.64552,-0.416141 7.547201,-4.123302 -2.370962,6.112539 -8.15016,9.409658 -15.706874,10.595984 -7.36708,1.160996 -25.157532,-1.778935 -17.901156,-23.836676 0.99797,-0.164959 1.585938,-0.241613 2.532018,-0.524121 z"
     style="fill:url(#linearGradient2890);fill-opacity:1;fill-rule:evenodd;stroke:none"
     inkscape:connector-curvature="0" />
  <path
     sodipodi:type="arc"
     style="color:#000000;fill:#ffffff;fill-opacity:1;fill-rule:evenodd;stroke:#000000;stroke-width:1.18601966;stroke-linecap:butt;stroke-linejoin:miter;stroke-miterlimit:4;stroke-opacity:1;stroke-dasharray:none;stroke-dashoffset:0;marker:none;visibility:visible;display:inline;overflow:visible;enable-background:accumulate"
     id="path2230"
     sodipodi:cx="37.964272"
     sodipodi:cy="30.2621"
     sodipodi:rx="6.9787269"
     sodipodi:ry="10.328515"
     d="m 44.942998,30.2621 a 6.9787269,10.328515 0 1 1 -13.957453,0 6.9787269,10.328515 0 1 1 13.957453,0 z"
     transform="matrix(1.3120043,0.2144712,-0.21449684,1.3118474,3.2179755,-26.934186)" />
  <path
     transform="matrix(1.3603803,0.48780524,-0.5119146,1.2963118,28.009484,-32.573745)"
     d="m 44.942998,30.2621 a 6.9787269,10.328515 0 1 1 -13.957453,0 6.9787269,10.328515 0 1 1 13.957453,0 z"
     sodipodi:ry="10.328515"
     sodipodi:rx="6.9787269"
     sodipodi:cy="30.2621"
     sodipodi:cx="37.964272"
     id="path2233"
     style="color:#000000;fill:#ffffff;fill-opacity:1;fill-rule:evenodd;stroke:#000000;stroke-width:1.11118507;stroke-linecap:butt;stroke-linejoin:miter;stroke-miterlimit:4;stroke-opacity:1;stroke-dasharray:none;stroke-dashoffset:0;marker:none;visibility:visible;display:inline;overflow:visible;enable-background:accumulate"
     sodipodi:type="arc" />
  <path
     style="fill:#000000;fill-opacity:1;fill-rule:evenodd;stroke:none"
     d="m 41.687617,23.799727 c 3.409437,-9.540205 9.655556,-5.201135 7.636442,2.064302 -2.019113,7.26544 -9.950223,4.410042 -7.636442,-2.064302 z"
     id="path4170"
     sodipodi:nodetypes="css"
     inkscape:connector-curvature="0" />
  <path
     style="fill:#000000;fill-opacity:1;fill-rule:evenodd;stroke:none"
     d="m 59.140471,28.424185 c 3.409437,-9.540205 9.655543,-5.201137 7.636428,2.064302 -2.019113,7.26544 -9.950209,4.410042 -7.636428,-2.064302 z"
     id="path4172"
     sodipodi:nodetypes="css"
     inkscape:connector-curvature="0" />
</svg>
