<?xml version="1.0" encoding="utf-8"?>
<!-- Generator: Adobe Illustrator 21.0.0, SVG Export Plug-In . SVG Version: 6.00 Build 0)  -->
<svg version="1.1" id="图层_1" xmlns="http://www.w3.org/2000/svg" xmlns:xlink="http://www.w3.org/1999/xlink" x="0px" y="0px"
	 viewBox="0 0 200 200" style="enable-background:new 0 0 200 200;" xml:space="preserve">
<style type="text/css">
	.st0{fill:#D84135;}
</style>
<rect x="11.8" y="16.3" class="st0" width="140.4" height="17.2"/>
<path class="st0" d="M21.7,38.7v156.8h120.6V38.7H21.7z M49.5,137H32.3v-13.8h17.2V137z M49.5,112.8H32.3V99h17.2V112.8z M49.5,64.6
	H32.3V50.8h17.2V64.6z M76.9,137H59.6v-13.8h17.2V137z M76.9,112.8H59.6V99h17.2V112.8z M76.9,88.7H59.6V74.9h17.2V88.7z M76.9,64.6
	H59.6V50.8h17.2V64.6z M104.2,112.8H87V99h17.2V112.8z M104.2,64.6H87V50.8h17.2V64.6z M131.6,137h-17.2v-13.8h17.2V137z
	 M131.6,112.8h-17.2V99h17.2V112.8z M131.6,88.7h-17.2V74.9h17.2V88.7z M131.6,64.6h-17.2V50.8h17.2V64.6z"/>
<path class="st0" d="M131.6,26.7H40.9v0c0-12,9.7-21.7,21.7-21.7h47.3C121.9,5,131.6,14.7,131.6,26.7L131.6,26.7z"/>
<path class="st0" d="M147.1,68v127.5h37V68H147.1z M174.3,161.9H157v-13.8h17.2V161.9z M174.3,139.5H157v-13.8h17.2V139.5z
	 M174.3,117.1H157v-13.8h17.2V117.1z M174.3,94.7H157V81h17.2V94.7z"/>
</svg>
