<?xml version="1.0" encoding="utf-8"?>
<!-- Generator: Adobe Illustrator 16.0.0, SVG Export Plug-In . SVG Version: 6.00 Build 0)  -->
<!DOCTYPE svg PUBLIC "-//W3C//DTD SVG 1.1//EN" "http://www.w3.org/Graphics/SVG/1.1/DTD/svg11.dtd">
<svg version="1.1" id="Layer_1" xmlns="http://www.w3.org/2000/svg" xmlns:xlink="http://www.w3.org/1999/xlink" x="0px" y="0px"
	 width="300px" height="80px" viewBox="0 0 300 80" enable-background="new 0 0 300 80" xml:space="preserve">
<g>
	<g>
		<path fill="#FFFFFF" d="M300,76.63c0,1.729-1.381,3.129-3.082,3.129H82.606c-1.705,0-3.086-1.4-3.086-3.129V3.37
			c0-1.732,1.381-3.129,3.086-3.129h214.312c1.701,0,3.082,1.396,3.082,3.129V76.63z"/>
	</g>
	<path fill="#009540" d="M79.521,76.63c0,1.729-1.399,3.129-3.13,3.129H3.13c-1.729,0-3.13-1.4-3.13-3.129V3.37
		c0-1.732,1.401-3.129,3.13-3.129h73.261c1.73,0,3.13,1.396,3.13,3.129V76.63z"/>
	<path fill="#FFCB00" d="M44.658,21.632V33.99l0,0c0,0.238-0.189,0.427-0.425,0.427c-0.115,0-0.219-0.047-0.298-0.122l-3.872-3.872
		c-0.077-0.077-0.183-0.122-0.303-0.122c-0.115,0-0.223,0.045-0.3,0.122h-0.002l-3.883,3.882c-0.075,0.071-0.177,0.112-0.288,0.112
		c-0.232,0-0.42-0.187-0.426-0.416l0.006-12.367l0,0c0-0.117,0.047-0.223,0.123-0.3l0,0l3.168-3.17h-0.001
		c0.078-0.075,0.127-0.184,0.127-0.301l0,0l0,0v-5.455l0,0c0-0.231-0.187-0.42-0.42-0.427h-1.969c-0.236,0-0.427-0.187-0.427-0.423
		c0-0.12,0.046-0.224,0.123-0.301v-0.002l3.866-3.868l0,0c0.079-0.073,0.183-0.123,0.302-0.123c0.118,0,0.226,0.05,0.303,0.123l0,0
		l3.868,3.87c0.074,0.077,0.123,0.181,0.123,0.301c0,0.236-0.192,0.423-0.428,0.423h-1.982c-0.232,0.007-0.418,0.195-0.418,0.427
		l0,0v5.436l0,0l0,0c0,0.117,0.046,0.227,0.123,0.3v0.002l3.183,3.188l0,0C44.611,21.409,44.658,21.517,44.658,21.632L44.658,21.632
		z M21.396,35.098c-0.119,0.002-0.224,0.054-0.3,0.129l0,0l-3.185,3.184v-0.002c-0.079,0.079-0.185,0.126-0.302,0.126l0,0l0,0
		h-5.437l0,0c-0.233,0-0.423-0.189-0.424-0.42v-1.983c0-0.235-0.193-0.424-0.429-0.424c-0.116,0-0.224,0.045-0.303,0.12
		l-3.865,3.871l0,0c-0.077,0.078-0.126,0.182-0.126,0.299c0,0.119,0.049,0.223,0.128,0.303H7.152l3.865,3.865l0,0
		c0.079,0.08,0.187,0.127,0.303,0.127c0.235,0,0.429-0.191,0.429-0.426v-1.972c0.001-0.231,0.19-0.421,0.424-0.421l0,0h5.452l0,0
		l0,0c0.118,0,0.224,0.047,0.303,0.125l0,0l3.169,3.169l0,0c0.075,0.077,0.184,0.124,0.301,0.124l0,0l12.364,0.007
		c0.234-0.007,0.423-0.192,0.423-0.427c0-0.111-0.045-0.213-0.113-0.289L30.188,40.3l0,0c-0.078-0.08-0.127-0.184-0.127-0.303
		c0-0.117,0.049-0.221,0.127-0.299l3.873-3.876c0.073-0.076,0.122-0.18,0.122-0.298c0-0.233-0.193-0.427-0.428-0.427l0,0H21.396
		L21.396,35.098z M34.862,58.364c0.002,0.121,0.051,0.225,0.128,0.303l0,0l3.183,3.182l0,0c0.076,0.08,0.123,0.188,0.123,0.303l0,0
		l0,0v5.438l0,0c0,0.232-0.185,0.42-0.416,0.424h-1.983c-0.236,0-0.427,0.191-0.427,0.428c0,0.117,0.046,0.224,0.123,0.301
		l3.868,3.869l0,0c0.077,0.075,0.185,0.123,0.3,0.123c0.12,0,0.226-0.05,0.303-0.127v0.004l3.868-3.869l0,0
		c0.074-0.077,0.123-0.184,0.123-0.301c0-0.236-0.19-0.428-0.428-0.428h-1.97c-0.232-0.004-0.421-0.191-0.421-0.424l0,0v-5.453l0,0
		l0,0c0-0.118,0.051-0.223,0.127-0.303l0,0l3.169-3.166l0,0c0.077-0.08,0.123-0.184,0.123-0.305l0,0l0.003-12.361
		c-0.003-0.234-0.191-0.425-0.425-0.425c-0.111,0-0.21,0.046-0.288,0.114l-3.882,3.886l0,0c-0.077,0.073-0.185,0.124-0.303,0.124
		c-0.119,0-0.223-0.051-0.302-0.124l-3.872-3.878c-0.077-0.073-0.183-0.122-0.299-0.122c-0.232,0-0.426,0.192-0.426,0.431l0,0
		V58.364L34.862,58.364z M58.129,44.898c0.117,0,0.223-0.051,0.298-0.128h0.002l3.184-3.184h0.003
		c0.074-0.076,0.183-0.125,0.3-0.125l0,0l0,0h5.437l0,0c0.229,0,0.42,0.188,0.424,0.418v1.982c0,0.238,0.191,0.43,0.427,0.43
		c0.119,0,0.226-0.047,0.303-0.127l3.867-3.868l0,0c0.078-0.077,0.124-0.181,0.124-0.3c0-0.117-0.046-0.221-0.125-0.299v-0.005
		l-3.866-3.866l0,0c-0.077-0.075-0.184-0.12-0.303-0.12c-0.235,0-0.427,0.188-0.427,0.424v1.974
		c-0.004,0.23-0.194,0.415-0.424,0.415l0,0h-5.453l0,0l0,0c-0.117,0-0.225-0.044-0.302-0.124l0,0l-3.17-3.167l0,0
		c-0.076-0.075-0.183-0.124-0.302-0.124l0,0l-12.363-0.007c-0.233,0.007-0.42,0.193-0.42,0.427c0,0.11,0.043,0.214,0.111,0.288
		l3.885,3.886l0,0c0.075,0.078,0.124,0.182,0.124,0.299c0,0.119-0.049,0.223-0.124,0.303l-3.875,3.877
		c-0.074,0.074-0.121,0.18-0.121,0.295c0,0.234,0.191,0.427,0.426,0.427l0,0H58.129L58.129,44.898z"/>
	<path fill="#009540" d="M116.604,39.546c5.415,0,8.861,2.349,8.861,6.037c0,2.551-1.588,4.582-4.139,5.309
		c3.033,0.586,4.964,2.964,4.964,6.1c0,4.101-3.586,6.688-9.273,6.688h-11.823V39.546H116.604z M111.296,49.201h4.965
		c1.792,0,2.93-0.966,2.93-2.515c0-1.553-1.138-2.45-2.93-2.45h-4.965V49.201z M111.296,58.957h4.965
		c2.274,0,3.687-1.003,3.687-2.728c0-1.615-1.412-2.617-3.687-2.617h-4.965V58.957z"/>
	<path fill="#009540" d="M141.67,56.886h-0.173h-4.653v6.794h-6.137V39.546h10.79c6.378,0,10.032,3.037,10.032,8.416
		c0,3.688-1.552,6.34-4.378,7.754l5.067,7.964h-6.963L141.67,56.886z M141.497,52.062c2.654,0,4.208-1.343,4.208-3.896
		c0-2.515-1.554-3.792-4.208-3.792h-4.653v7.688H141.497z"/>
	<path fill="#009540" d="M162.016,59.231l-1.762,4.448h-6.305l10.408-24.134h6.313l10.168,24.134h-6.551l-1.725-4.448H162.016z
		 M167.324,45.651l-3.518,8.925h6.965L167.324,45.651z"/>
	<path fill="#009540" d="M202.625,41.962l-2.307,4.791c-2.551-1.483-5.758-2.517-7.723-2.517c-1.586,0-2.652,0.591-2.652,1.758
		c0,4.171,12.75,1.794,12.75,10.513c0,4.825-4.273,7.379-9.648,7.379c-4.035,0-8.174-1.517-11.033-3.86l2.381-4.723
		c2.48,2.167,6.201,3.614,8.719,3.614c1.93,0,3.139-0.721,3.139-2.101c0-4.274-12.756-1.725-12.756-10.271
		c0-4.449,3.828-7.273,9.617-7.273C196.594,39.272,200.145,40.338,202.625,41.962z"/>
	<path fill="#009540" d="M206.906,63.68V39.546h6.137V63.68H206.906z M211.521,37.442h-4.549l3.656-5.79l5.379,1.897L211.521,37.442
		z"/>
	<path fill="#009540" d="M235.105,58.542v5.138h-16.373V39.546h6.133v18.996H235.105z"/>
	<path fill="#009540" d="M238.9,63.68V39.546h6.133V63.68H238.9z"/>
	<path fill="#009540" d="M256.203,59.231l-1.76,4.448h-6.305l10.408-24.134h6.309l10.172,24.134h-6.551l-1.723-4.448H256.203z
		 M261.514,45.651L258,54.576h6.959L261.514,45.651z"/>
	
		<rect x="32.788" y="33.033" transform="matrix(-0.7071 -0.7071 0.7071 -0.7071 39.5864 96.4119)" fill="none" width="13.946" height="13.948"/>
	<g>
		<path fill="#1D1D1B" d="M115.434,21.722v4.17c-1.146,0.81-2.947,1.391-4.445,1.391c-3.253,0-5.712-2.353-5.712-5.469
			c0-3.101,2.52-5.438,5.896-5.438c1.589,0,3.269,0.611,4.369,1.589l-1.528,1.848c-0.778-0.718-1.863-1.161-2.856-1.161
			c-1.756,0-3.101,1.375-3.101,3.162c0,1.817,1.359,3.192,3.132,3.192c0.55,0,1.253-0.198,1.895-0.519v-2.766H115.434z"/>
		<path fill="#1D1D1B" d="M135.062,21.798c0,3.116-2.475,5.484-5.789,5.484c-3.3,0-5.774-2.353-5.774-5.484
			c0-3.115,2.475-5.422,5.774-5.422C132.587,16.376,135.062,18.697,135.062,21.798z M126.278,21.813
			c0,1.803,1.391,3.192,3.024,3.192c1.649,0,2.964-1.39,2.964-3.192s-1.314-3.162-2.964-3.162S126.278,20.011,126.278,21.813z"/>
		<path fill="#1D1D1B" d="M146.288,27.159l-4.154-10.692h2.902l2.733,7.867l2.734-7.867h2.795l-4.2,10.692H146.288z"/>
		<path fill="#1D1D1B" d="M163.945,18.605v2.123h5.102v2.139h-5.102v2.154h5.818v2.138h-8.537V16.467h8.371v2.139H163.945z"/>
		<path fill="#1D1D1B" d="M183.254,24.151h-0.076h-2.063v3.008h-2.719V16.467h4.781c2.824,0,4.443,1.345,4.443,3.728
			c0,1.634-0.686,2.811-1.939,3.437l2.246,3.528h-3.086L183.254,24.151z M183.178,22.012c1.176,0,1.863-0.596,1.863-1.726
			c0-1.115-0.688-1.681-1.863-1.681h-2.063v3.406H183.178z"/>
		<path fill="#1D1D1B" d="M203.797,27.159l-4.918-6.583v6.583h-2.551V16.467h2.398l4.934,6.6v-6.6h2.535v10.692H203.797z"/>
		<path fill="#1D1D1B" d="M226.068,21.798c0,3.116-2.475,5.484-5.789,5.484c-3.299,0-5.775-2.353-5.775-5.484
			c0-3.115,2.477-5.422,5.775-5.422C223.594,16.376,226.068,18.697,226.068,21.798z M217.285,21.813
			c0,1.803,1.389,3.192,3.023,3.192c1.65,0,2.965-1.39,2.965-3.192s-1.314-3.162-2.965-3.162
			C218.66,18.651,217.285,20.011,217.285,21.813z"/>
		<path fill="#1D1D1B" d="M249.393,16.467c3.359,0,5.682,2.17,5.682,5.347c0,3.162-2.352,5.346-5.789,5.346h-4.49V16.467H249.393z
			 M247.512,24.99h1.941c1.664,0,2.855-1.282,2.855-3.162c0-1.894-1.252-3.191-2.979-3.191h-1.818V24.99z"/>
		<path fill="#1D1D1B" d="M266.104,18.605v2.123h5.102v2.139h-5.102v2.154h5.818v2.138h-8.539V16.467h8.371v2.139H266.104z"/>
	</g>
</g>
</svg>
