<?xml version="1.0" encoding="utf-8"?>
<!-- Generator: Adobe Illustrator 16.0.0, SVG Export Plug-In . SVG Version: 6.00 Build 0)  -->
<!DOCTYPE svg PUBLIC "-//W3C//DTD SVG 1.1//EN" "http://www.w3.org/Graphics/SVG/1.1/DTD/svg11.dtd">
<svg version="1.1" id="Layer_1" xmlns="http://www.w3.org/2000/svg" xmlns:xlink="http://www.w3.org/1999/xlink" x="0px" y="0px"
	 width="218px" height="40px" viewBox="0 0 218 40" enable-background="new 0 0 218 40" xml:space="preserve">
<path fill="#009540" d="M39.813,38.332c0,0.87-0.7,1.574-1.567,1.574H1.567C0.701,39.906,0,39.202,0,38.332V1.48
	c0-0.872,0.701-1.574,1.567-1.574h36.679c0.867,0,1.567,0.703,1.567,1.574V38.332z"/>
<path fill="#FFCB00" d="M22.359,10.71v6.188l0,0c0,0.118-0.095,0.213-0.212,0.213c-0.058,0-0.11-0.023-0.149-0.061l-1.938-1.938
	c-0.039-0.039-0.092-0.061-0.152-0.061c-0.058,0-0.111,0.022-0.15,0.061h-0.001l-1.944,1.943c-0.038,0.036-0.088,0.056-0.144,0.056
	c-0.117,0-0.21-0.093-0.213-0.208l0.002-6.191l0,0c0-0.059,0.023-0.111,0.062-0.15l0,0l1.586-1.587h-0.001
	c0.04-0.038,0.064-0.092,0.064-0.151l0,0l0,0V6.092l0,0c0-0.116-0.094-0.21-0.21-0.213h-0.985c-0.119,0-0.215-0.093-0.215-0.212
	c0-0.06,0.024-0.111,0.063-0.15V5.515l1.935-1.937l0,0c0.04-0.037,0.092-0.062,0.151-0.062c0.059,0,0.113,0.025,0.152,0.062l0,0
	l1.936,1.938c0.038,0.039,0.063,0.09,0.063,0.15c0,0.119-0.097,0.212-0.214,0.212H20.85c-0.116,0.003-0.209,0.098-0.209,0.213l0,0
	v2.721l0,0l0,0c0,0.059,0.023,0.114,0.062,0.151v0.001l1.594,1.596l0,0C22.335,10.598,22.359,10.652,22.359,10.71L22.359,10.71z
	 M10.712,17.453c-0.06,0.001-0.112,0.026-0.15,0.064l0,0L8.967,19.11v-0.001c-0.04,0.039-0.092,0.063-0.151,0.063l0,0l0,0H6.094l0,0
	c-0.117,0-0.211-0.094-0.212-0.21v-0.993c0-0.118-0.096-0.212-0.214-0.212c-0.058,0-0.112,0.022-0.151,0.061l-1.936,1.938l0,0
	c-0.039,0.039-0.063,0.09-0.063,0.149c0,0.06,0.024,0.111,0.064,0.151H3.581l1.936,1.936l0,0c0.04,0.04,0.094,0.063,0.151,0.063
	c0.118,0,0.214-0.096,0.214-0.214v-0.987c0.001-0.115,0.095-0.21,0.212-0.21l0,0h2.73l0,0l0,0c0.059,0,0.112,0.024,0.151,0.062l0,0
	l1.587,1.588l0,0c0.038,0.038,0.091,0.063,0.15,0.063l0,0l6.191,0.002c0.117-0.002,0.211-0.096,0.211-0.212
	c0-0.057-0.022-0.108-0.057-0.146l-1.944-1.944l0,0c-0.039-0.04-0.063-0.091-0.063-0.151c0-0.059,0.024-0.11,0.063-0.149l1.939-1.94
	c0.037-0.039,0.061-0.091,0.061-0.149c0-0.117-0.097-0.213-0.214-0.213l0,0H10.712L10.712,17.453z M17.455,29.1
	c0.001,0.061,0.025,0.112,0.063,0.152l0,0l1.593,1.593l0,0c0.039,0.04,0.062,0.095,0.062,0.152l0,0l0,0v2.723l0,0
	c0,0.116-0.092,0.209-0.208,0.211h-0.993c-0.119,0-0.215,0.096-0.215,0.216c0,0.059,0.024,0.11,0.063,0.15l1.936,1.938l0,0
	c0.039,0.036,0.093,0.061,0.15,0.061c0.06,0,0.113-0.024,0.152-0.063v0.002l1.936-1.938l0,0c0.038-0.04,0.063-0.092,0.063-0.15
	c0-0.12-0.096-0.216-0.214-0.216h-0.987c-0.116-0.002-0.21-0.095-0.21-0.211l0,0v-2.73l0,0l0,0c0-0.06,0.025-0.112,0.064-0.152l0,0
	l1.586-1.585l0,0c0.039-0.04,0.062-0.092,0.062-0.152l0,0l0.001-6.188c-0.001-0.118-0.096-0.212-0.212-0.212
	c-0.056,0-0.105,0.021-0.145,0.056L20.059,24.7l0,0c-0.039,0.036-0.093,0.063-0.152,0.063c-0.06,0-0.111-0.026-0.151-0.063
	l-1.938-1.941c-0.039-0.036-0.092-0.06-0.15-0.06c-0.117,0-0.213,0.096-0.213,0.214l0,0V29.1L17.455,29.1z M29.103,22.358
	c0.059,0,0.112-0.024,0.149-0.064h0.001l1.594-1.594h0.001c0.038-0.037,0.091-0.061,0.15-0.061l0,0l0,0h2.722l0,0
	c0.115,0,0.21,0.093,0.213,0.208v0.993c0,0.12,0.095,0.216,0.213,0.216c0.06,0,0.113-0.023,0.151-0.063l1.937-1.937l0,0
	c0.039-0.039,0.062-0.09,0.062-0.15c0-0.059-0.023-0.11-0.063-0.149v-0.003l-1.936-1.935l0,0c-0.039-0.038-0.091-0.061-0.151-0.061
	c-0.118,0-0.213,0.094-0.213,0.212v0.988c-0.002,0.115-0.098,0.208-0.213,0.208l0,0h-2.73l0,0l0,0c-0.059,0-0.113-0.022-0.152-0.062
	l0,0l-1.586-1.586l0,0c-0.039-0.038-0.091-0.062-0.151-0.062l0,0l-6.189-0.003c-0.117,0.003-0.21,0.096-0.21,0.213
	c0,0.054,0.021,0.106,0.056,0.144l1.945,1.945l0,0c0.038,0.039,0.062,0.09,0.062,0.149c0,0.06-0.024,0.111-0.062,0.151l-1.939,1.942
	c-0.038,0.036-0.061,0.09-0.061,0.148c0,0.116,0.096,0.212,0.213,0.212l0,0H29.103L29.103,22.358z"/>
<g>
	<path fill="#424242" d="M58.333,21.587v3.548c-0.977,0.739-2.42,1.25-3.738,1.25c-2.844,0-5.057-2.134-5.057-4.881
		c0-2.746,2.24-4.851,5.153-4.851c1.373,0,2.748,0.524,3.695,1.347l-0.918,1.195c-0.744-0.687-1.775-1.1-2.777-1.1
		c-1.965,0-3.505,1.499-3.505,3.408c0,1.922,1.554,3.422,3.52,3.422c0.714,0,1.523-0.25,2.211-0.66v-2.679H58.333z"/>
	<path fill="#424242" d="M70.024,21.504c0,2.747-2.227,4.881-5.099,4.881c-2.87,0-5.096-2.134-5.096-4.881
		c0-2.761,2.226-4.851,5.096-4.851C67.797,16.653,70.024,18.758,70.024,21.504z M61.477,21.504c0,1.909,1.58,3.422,3.463,3.422
		c1.882,0,3.421-1.513,3.421-3.422s-1.54-3.393-3.421-3.393C63.043,18.111,61.477,19.595,61.477,21.504z"/>
	<path fill="#424242" d="M74.228,26.313l-3.834-9.617h1.745l2.97,7.815l2.995-7.815h1.69l-3.889,9.617H74.228z"/>
	<path fill="#424242" d="M82.72,18.151v2.6h4.698v1.456H82.72v2.649h5.413v1.458h-7.036v-9.617h6.87v1.455H82.72z"/>
	<path fill="#424242" d="M94.451,23.402c-0.137,0.011-0.288,0.011-0.439,0.011h-2.28v2.9h-1.623v-9.617h3.903
		c2.46,0,3.875,1.196,3.875,3.282c0,1.538-0.715,2.63-1.993,3.118l2.157,3.217h-1.841L94.451,23.402z M94.012,21.961
		c1.483,0,2.336-0.633,2.336-1.939c0-1.264-0.853-1.871-2.336-1.871h-2.28v3.81H94.012z"/>
	<path fill="#424242" d="M106.79,26.313l-5.125-6.898v6.898h-1.621v-9.617h1.592l5.154,6.91v-6.91h1.595v9.617H106.79z"/>
	<path fill="#424242" d="M120.325,21.504c0,2.747-2.225,4.881-5.098,4.881c-2.874,0-5.1-2.134-5.1-4.881
		c0-2.761,2.226-4.851,5.1-4.851C118.101,16.653,120.325,18.758,120.325,21.504z M111.779,21.504c0,1.909,1.579,3.422,3.461,3.422
		c1.883,0,3.421-1.513,3.421-3.422s-1.538-3.393-3.421-3.393C113.344,18.111,111.779,19.595,111.779,21.504z"/>
	<path fill="#424242" d="M129.54,16.696c2.887,0,4.978,2.018,4.978,4.808c0,2.776-2.106,4.81-5.016,4.81h-3.906v-9.617H129.54z
		 M127.219,24.855h2.364c1.867,0,3.296-1.387,3.296-3.339c0-1.961-1.471-3.366-3.367-3.366h-2.293V24.855z"/>
	<path fill="#424242" d="M137.869,18.151v2.6h4.7v1.456h-4.7v2.649h5.409v1.458h-7.031v-9.617h6.868v1.455H137.869z"/>
	<path fill="#424242" d="M152.979,16.696c1.997,0,3.232,0.905,3.232,2.403c0,1.088-0.646,1.898-1.693,2.144
		c1.292,0.221,2.062,1.142,2.062,2.434c0,1.646-1.328,2.637-3.499,2.637h-4.273v-9.617H152.979z M150.426,20.679h2.476
		c1.026,0,1.643-0.479,1.643-1.29c0-0.811-0.616-1.25-1.643-1.25h-2.476V20.679z M150.426,24.869h2.476c1.264,0,2.02-0.495,2.02-1.4
		c0-0.853-0.756-1.357-2.02-1.357h-2.476V24.869z"/>
	<path fill="#424242" d="M162.847,23.402c-0.136,0.011-0.286,0.011-0.438,0.011h-2.284v2.9h-1.623v-9.617h3.907
		c2.456,0,3.871,1.196,3.871,3.282c0,1.538-0.713,2.63-1.991,3.118l2.157,3.217h-1.841L162.847,23.402z M162.409,21.961
		c1.479,0,2.333-0.633,2.333-1.939c0-1.264-0.854-1.871-2.333-1.871h-2.284v3.81H162.409z"/>
	<path fill="#424242" d="M169.8,24.144l-0.923,2.17h-1.693l4.25-9.617h1.66l4.204,9.617h-1.732l-0.919-2.17H169.8z M172.217,18.427
		l-1.815,4.274h3.628L172.217,18.427z"/>
	<path fill="#424242" d="M185.022,17.616l-0.674,1.43c-1.048-0.632-2.09-0.895-2.817-0.895c-0.946,0-1.565,0.358-1.565,1.005
		c0,2.101,5.193,0.973,5.181,4.435c0,1.718-1.516,2.779-3.627,2.779c-1.516,0-2.946-0.618-3.93-1.529l0.696-1.401
		c0.992,0.912,2.226,1.401,3.261,1.401c1.121,0,1.796-0.425,1.796-1.164c0-2.146-5.192-0.948-5.192-4.37
		c0-1.648,1.415-2.679,3.504-2.679C182.905,16.627,184.127,17.026,185.022,17.616z"/>
	<path fill="#424242" d="M188.332,15.651h-1.401l1.452-2.032l1.624,0.686L188.332,15.651z M187.04,26.313v-9.617h1.621v9.617H187.04
		z"/>
	<path fill="#424242" d="M196.974,24.841v1.473h-5.784v-9.617h1.618v8.145H196.974z"/>
	<path fill="#424242" d="M198.524,26.313v-9.617h1.623v9.617H198.524z"/>
	<path fill="#424242" d="M204.032,24.144l-0.92,2.17h-1.688l4.244-9.617h1.666l4.204,9.617h-1.731l-0.922-2.17H204.032z
		 M206.45,18.427l-1.81,4.274h3.627L206.45,18.427z"/>
</g>
</svg>
